<svg xmlns="http://www.w3.org/2000/svg" viewBox="0 0 512.001 512.001">
    <path d="M492.02 180.64c-13.26-12.92-32.55-19.2-58.96-19.2-32.6 0-91.47 16.85-128.88 41.58a72.18 72.18 0 0 0-8.76-6.8 1914.18 1914.18 0 0 0 33.83-57.48c21.31-37.8 21.31-41.18 21.31-44.18C350.56 41.31 290.7 0 239.2 0c-26.31 0-45.47 6.54-58.56 19.98-12.92 13.27-19.2 32.55-19.2 58.96 0 32.6 16.85 91.47 41.57 128.88a72.18 72.18 0 0 0-6.8 8.76 1912.3 1912.3 0 0 0-57.47-33.83c-37.8-21.31-41.18-21.31-44.18-21.31C41.31 161.44 0 221.3 0 272.8c0 26.31 6.54 45.47 19.98 58.56 13.27 12.92 32.55 19.2 58.96 19.2 32.6 0 91.47-16.85 128.88-41.57a72.18 72.18 0 0 0 8.76 6.8 1911.65 1911.65 0 0 0-33.83 57.47c-21.31 37.8-21.31 41.19-21.31 44.18 0 53.25 59.86 94.56 111.36 94.56 26.31 0 45.47-6.53 58.56-19.98 12.92-13.26 19.2-32.55 19.2-58.96 0-32.59-16.85-91.47-41.57-128.88a72.18 72.18 0 0 0 6.8-8.76 1914.42 1914.42 0 0 0 57.47 33.83c37.8 21.31 41.19 21.31 44.18 21.31 53.25 0 94.56-59.86 94.56-111.36 0-26.31-6.54-45.47-19.98-58.56zM78.94 330.17c-20.83 0-35.46-4.4-44.73-13.42-9.3-9.05-13.81-23.43-13.81-43.95 0-20.68 8.42-43.76 22.53-61.76 14.45-18.42 32.3-28.75 50.42-29.19 9.02 3.41 55.02 29.2 94.1 53.29a71.43 71.43 0 0 0-3.1 20.86c0 13.6 3.8 26.32 10.4 37.16-33.55 21.5-86.76 37-115.81 37zm102.9-251.23c0-20.83 4.38-35.46 13.41-44.73 9.05-9.3 23.43-13.81 43.95-13.81 20.68 0 43.76 8.42 61.76 22.53 18.42 14.45 28.74 32.3 29.19 50.42-3.41 9.03-29.2 55.03-53.29 94.1a71.43 71.43 0 0 0-20.86-3.1c-13.6 0-26.31 3.8-37.15 10.4-21.5-33.55-37.01-86.76-37.01-115.8zM204.74 256c0-28.26 23-51.25 51.26-51.25s51.25 23 51.25 51.25-22.99 51.25-51.25 51.25-51.25-22.99-51.25-51.25zm125.43 177.06c0 20.83-4.4 35.46-13.42 44.73-9.05 9.3-23.43 13.81-43.95 13.81-20.68 0-43.76-8.42-61.76-22.53-18.42-14.45-28.74-32.3-29.19-50.42 3.41-9.02 29.2-55.03 53.29-94.1 6.6 2 13.6 3.1 20.86 3.1 13.6 0 26.31-3.8 37.15-10.4 21.5 33.55 37.02 86.76 37.02 115.81zm138.9-132.1c-14.45 18.42-32.3 28.75-50.42 29.19-9.02-3.41-55.03-29.2-94.11-53.28 2.01-6.61 3.1-13.61 3.1-20.87 0-13.6-3.8-26.31-10.4-37.15 33.56-21.5 86.77-37.02 115.82-37.02 20.83 0 35.46 4.4 44.73 13.42 9.3 9.05 13.81 23.43 13.81 43.95 0 20.68-8.42 43.76-22.54 61.76z"/>
    <path d="M289.28 243.32a10.2 10.2 0 1 0-19.06 7.27c.65 1.72.98 3.54.98 5.41a10.2 10.2 0 0 0 20.4 0c0-4.36-.78-8.63-2.32-12.68zM255.85 220.77c-19.88 0-35.45 15.47-35.45 35.23a10.2 10.2 0 0 0 20.4 0c0-8.32 6.6-14.84 15.05-14.84a10.2 10.2 0 1 0 0-20.4z"/>
</svg>
